<svg xmlns:xlink="http://www.w3.org/1999/xlink" xmlns="http://www.w3.org/2000/svg" class="nc-icon" aria-labelledby="MLB263532" role="img" width="48"  height="48" ><defs><symbol id="nc-settings-tool-67" viewBox="0 0 48 48"><path fill="none" stroke="#000000" stroke-linecap="square" stroke-miterlimit="10" d="M45.5 9.6l-5.9 5.9-7.1-7.1 5.9-5.9C37 2.1 35.6 1.9 34 2c-5.6.5-10.1 5.5-10 11.1 0 1.1.2 2.2.5 3.2l-19.2 17c-2.9 2.5-3 7-.3 9.7 2.7 2.7 7.1 2.6 9.7-.3l17-19.2c1.7.5 3.6.7 5.6.3 4-.8 7.3-3.8 8.4-7.7.5-2.3.4-4.5-.2-6.5z" stroke-linejoin="miter" class="nc-icon-wrapper"></path></symbol></defs><title id="MLB263532">Ferramentas</title><use xlink:href="#nc-settings-tool-67" stroke="#000000" fill="none" stroke-width="2px">Ferramentas</use></svg>